<svg width="102" height="22" viewBox="0 0 102 22" fill="none" xmlns="http://www.w3.org/2000/svg">
<path d="M97.2479 3.51605C97.2479 2.36896 98.1694 1.42873 99.2977 1.42873C99.843 1.42873 100.351 1.65439 100.746 2.03048C101.141 2.42538 101.347 2.95191 101.347 3.49725C101.347 4.04258 101.141 4.56911 100.746 4.96401C100.351 5.35891 99.843 5.58457 99.2977 5.58457C98.1694 5.58457 97.2479 4.66314 97.2479 3.51605ZM97.0787 3.51605C97.0787 4.75716 98.0753 5.77261 99.3165 5.77261C99.9182 5.77261 100.464 5.54696 100.877 5.11445C101.291 4.68194 101.535 4.1178 101.535 3.51605C101.535 2.9143 101.31 2.35016 100.877 1.91765C100.445 1.48514 99.8994 1.25949 99.3165 1.25949C98.0753 1.25949 97.0787 2.27494 97.0787 3.51605ZM98.4702 4.85118H98.7899V3.79812H99.5045C99.6173 3.79812 99.7113 3.79812 99.7866 3.83573C99.8806 3.89214 99.937 4.00497 99.9558 4.15541L99.9934 4.56911C99.9934 4.66314 99.9934 4.71955 99.9934 4.75716C100.012 4.79477 100.012 4.81357 100.031 4.83238H100.426V4.77597C100.37 4.75716 100.351 4.70075 100.332 4.62553C100.313 4.58792 100.313 4.5127 100.313 4.41868L100.294 4.099C100.294 3.94856 100.257 3.85454 100.219 3.79812C100.163 3.74171 100.087 3.68529 99.9934 3.64768C100.106 3.59127 100.181 3.51605 100.238 3.42203C100.294 3.328 100.313 3.21518 100.313 3.06474C100.313 2.78267 100.2 2.59462 99.9934 2.48179C99.8806 2.42538 99.7302 2.40657 99.5609 2.40657H98.4891L98.4702 4.85118ZM98.7711 3.51605V2.66984H99.5233C99.6361 2.66984 99.7302 2.68864 99.7866 2.72625C99.8994 2.78267 99.9558 2.9143 99.9558 3.08354C99.9558 3.25278 99.9182 3.36561 99.8242 3.42203C99.749 3.47844 99.6361 3.51605 99.4857 3.51605H98.7711ZM9.67448 6.61882L0.5354 20.9856H6.77856L15.5792 7.25818L9.67448 6.61882ZM47.3027 6.29915V0.977417H29.5322C27.1064 1.12785 26.0534 2.29375 25.2636 3.12115C24.4174 4.00497 23.9472 5.86664 23.9472 5.86664V1.01503H14.4885C13.7739 1.01503 13.0969 1.3159 12.5892 2.03048C12.0627 2.72625 9.90014 6.29915 9.90014 6.29915H47.3027ZM95.6307 6.29915V0.977417H76.6192C74.2122 1.12785 73.1403 2.29375 72.3505 3.12115C71.5043 4.00497 71.0342 5.86664 71.0342 5.86664V6.29915H95.6307ZM53.5458 0.996222H48.2241V6.29915H53.5458V0.996222ZM70.9778 0.996222H65.6749V6.29915H70.9778V0.996222ZM70.9778 8.21722L65.7501 7.89754V14.0467C65.7501 14.0467 65.7313 15.8143 64.02 15.8143H55.069C55.069 15.8143 53.5458 15.6827 53.5458 14.0655V7.07014L48.2805 6.69404V16.1152C49.1267 20.6283 53.2073 20.9856 53.2073 20.9856C53.2073 20.9856 53.6211 21.0044 53.6963 21.0232H65.8253C65.8253 21.0232 71.0154 20.6095 71.0154 15.6075L70.9778 8.21722ZM18.5315 20.9856H43.3913C47.7164 20.1206 48.1677 16.1716 48.1677 16.1716C48.3745 15.0057 48.2617 14.0467 48.2617 14.0467C48.1301 13.2569 46.6257 9.75921 43.3913 9.45833C41.4544 9.27029 24.2105 7.89754 24.2105 7.89754C24.549 9.62758 25.32 10.5114 25.8465 11.0003C27.05 12.1474 28.9493 12.4859 28.9493 12.4859C29.4006 12.5235 42.2442 13.5954 42.2442 13.5954C42.6579 13.6142 43.4289 13.727 43.4101 14.7425C43.4101 14.8741 43.2973 15.7579 42.3194 15.7579H23.7216V7.85993L18.5503 7.48384C18.5315 7.48384 18.5315 20.9856 18.5315 20.9856ZM71.0154 21.0232H90.0457C94.8221 20.7411 95.4991 16.2092 95.4991 16.2092C95.6683 15.0245 95.5367 14.0467 95.5367 14.0467C95.4051 12.9748 93.8819 9.7404 90.6287 9.42072C88.7106 9.23268 71.3539 8.21722 71.3539 8.21722C71.8616 10.0037 72.5574 10.549 73.0839 11.0379C74.2874 12.2038 76.0739 12.4671 76.0739 12.4671C76.5252 12.5047 89.5004 13.5954 89.5004 13.5954C89.9141 13.6142 90.7603 13.6518 90.7603 14.6672C90.7603 14.9681 90.6099 15.2878 90.4218 15.457C90.4218 15.457 89.9705 15.7015 89.538 15.7015H71.0718L71.0154 21.0232Z" fill="#00539B"/>
</svg>
