<svg width="25" height="25" viewBox="0 0 25 25" fill="none" xmlns="http://www.w3.org/2000/svg">
<path d="M3.87942 5.48063L6.10352e-05 1.66525L1.69272 0L5.57088 3.81655H23.8038C23.9902 3.81654 24.1741 3.85941 24.3407 3.94173C24.5074 4.02406 24.6521 4.14356 24.7634 4.2907C24.8748 4.43785 24.9496 4.60856 24.982 4.78921C25.0143 4.96986 25.0033 5.15545 24.9498 5.33117L22.0788 14.746C22.005 14.9886 21.8536 15.2012 21.6471 15.3524C21.4407 15.5035 21.1902 15.5852 20.9328 15.5851H6.27186V17.9389H19.4304V20.2926H5.07564C4.75839 20.2926 4.45412 20.1686 4.22979 19.9479C4.00545 19.7272 3.87942 19.4278 3.87942 19.1157V5.48063ZM6.27186 6.1703V13.2314H20.0429L22.1961 6.1703H6.27186ZM5.67376 25C5.19787 25 4.74147 24.814 4.40497 24.483C4.06846 24.1519 3.87942 23.7029 3.87942 23.2347C3.87942 22.7665 4.06846 22.3175 4.40497 21.9865C4.74147 21.6554 5.19787 21.4694 5.67376 21.4694C6.14966 21.4694 6.60606 21.6554 6.94256 21.9865C7.27906 22.3175 7.46806 22.7665 7.46806 23.2347C7.46806 23.7029 7.27906 24.1519 6.94256 24.483C6.60606 24.814 6.14966 25 5.67376 25ZM20.0285 25C19.5526 25 19.0962 24.814 18.7597 24.483C18.4232 24.1519 18.2342 23.7029 18.2342 23.2347C18.2342 22.7665 18.4232 22.3175 18.7597 21.9865C19.0962 21.6554 19.5526 21.4694 20.0285 21.4694C20.5044 21.4694 20.9608 21.6554 21.2973 21.9865C21.6338 22.3175 21.8228 22.7665 21.8228 23.2347C21.8228 23.7029 21.6338 24.1519 21.2973 24.483C20.9608 24.814 20.5044 25 20.0285 25Z" fill="white"/>
</svg>
