<svg width="103" height="22" viewBox="0 0 103 22" fill="none" xmlns="http://www.w3.org/2000/svg">
<g clip-path="url(#clip0_412_1102)">
<path d="M10.9972 0.00305176C4.92938 0.00305176 0 4.93244 0 11.0003C0 17.0682 4.92938 21.9976 10.9972 21.9976C17.0651 21.9976 21.9945 17.0682 21.9945 11.0003C21.9945 4.93244 17.0651 0.00305176 10.9972 0.00305176ZM10.9972 20.8954C5.53495 20.8954 1.10215 16.4505 1.10215 11.0003C1.10215 5.55013 5.53495 1.1052 10.9972 1.1052C16.4595 1.1052 20.8923 5.55013 20.8923 11.0003C20.8923 16.4505 16.4595 20.8954 10.9972 20.8954Z" fill="black"/>
<path d="M14.9214 3.95147C14.885 3.92725 14.8366 3.91514 14.7881 3.91514C14.6428 3.91514 14.5338 4.02414 14.5338 4.16948V7.60915C14.5338 7.73026 14.4369 7.82716 14.3158 7.82716H7.65448C7.53336 7.82716 7.44858 7.73026 7.43647 7.60915V4.16948C7.43647 4.12103 7.42436 4.0847 7.40013 4.03625C7.32747 3.91514 7.17002 3.8788 7.0489 3.95147C4.59027 5.46541 3.10056 8.09361 3.10056 11.0004C3.10056 13.9071 4.59027 16.5353 7.07312 18.0493C7.10946 18.0735 7.15791 18.0856 7.20635 18.0856C7.35169 18.0856 7.46069 17.9766 7.46069 17.8313V14.3916C7.46069 14.2705 7.55758 14.1857 7.6787 14.1736H14.34C14.4611 14.1736 14.558 14.2705 14.558 14.3916V17.8313C14.558 17.8797 14.5701 17.9161 14.5944 17.9645C14.667 18.0856 14.8245 18.1219 14.9456 18.0493C17.4284 16.5353 18.9182 13.9071 18.9182 11.0004C18.9182 8.09361 17.4042 5.46541 14.9214 3.95147ZM6.17687 15.3121L6.21321 15.7239L5.94676 15.3969C3.89991 12.8171 3.89991 9.17154 5.94676 6.59178L6.17687 6.30111L6.21321 6.26477L6.17687 6.68867C6.14054 7.0278 6.12843 7.37903 6.12843 7.73026V14.2584C6.12843 14.6096 6.15265 14.9608 6.17687 15.3121ZM14.5338 12.6475C14.5338 12.7687 14.4369 12.8655 14.3158 12.8655H7.65448C7.53336 12.8655 7.44858 12.7687 7.43647 12.6475V9.35321C7.43647 9.23209 7.53336 9.1352 7.65448 9.1352H14.3158C14.4369 9.1352 14.5338 9.23209 14.5338 9.35321V12.6475ZM16.0356 15.3969L15.7692 15.7239L15.8055 15.3121C15.8418 14.973 15.854 14.6217 15.854 14.2705V7.73026C15.854 7.37903 15.8418 7.0278 15.8055 6.68867L15.7934 6.507L15.7813 6.31322V6.26477L16.0356 6.59178C17.0288 7.82716 17.5738 9.40165 17.5738 10.9883C17.5738 12.5749 17.0288 14.1615 16.0356 15.3969Z" fill="black"/>
<path d="M38.5872 10.8066C38.5267 10.7824 38.454 10.7582 38.454 10.6855C38.454 10.637 38.4782 10.6007 38.5267 10.5765C38.6115 10.5402 40.7068 9.78924 40.7068 7.3185C40.7068 4.56918 38.8537 2.93413 35.7289 2.93413H28.1592V19.0909H36.4193C38.8295 19.0909 41.4213 17.3832 41.4213 14.6338C41.4213 12.0057 39.435 11.0852 38.5872 10.8066ZM31.9744 6.24057C31.9744 6.18001 32.0228 6.13157 32.0834 6.13157H35.087C36.0802 6.13157 36.7584 6.7977 36.7584 7.79085C36.7584 8.56598 36.1528 9.40168 35.0143 9.40168H32.0834C32.0228 9.40168 31.9744 9.35323 31.9744 9.29267V6.24057ZM35.087 15.9056H32.0834C32.0228 15.9056 31.9744 15.8571 31.9744 15.7966V12.5749C31.9744 12.5143 32.0228 12.4659 32.0834 12.4659H35.0143C36.4556 12.4659 37.2792 13.0836 37.2792 14.1736C37.2792 15.3 36.5162 15.9056 35.087 15.9056ZM66.9887 9.36534L66.4073 9.24423C65.0993 8.96566 63.8276 8.61443 63.8276 7.48806C63.8276 6.36169 64.8813 5.853 65.9229 5.853C67.1461 5.853 68.3573 6.39802 69.2778 7.34272L71.6758 4.96886C70.6464 3.83038 68.8175 2.52234 65.8623 2.52234C62.3015 2.52234 59.9035 4.54496 59.9035 7.56073C59.9035 10.7461 62.4106 11.9451 64.518 12.3932L65.0872 12.5143C67.134 12.9503 68.103 13.2774 68.103 14.4401C68.103 15.4817 67.1704 16.172 65.7897 16.172C64.1667 16.172 62.7255 15.4574 61.6354 14.1131L59.1768 16.5232C60.4848 18.0735 62.2168 19.4785 65.8381 19.4785C68.9265 19.4785 72.0634 17.6859 72.0634 14.2463C72.0513 10.7218 69.6532 9.92247 66.9887 9.36534ZM98.9025 2.93413V8.84455C98.9025 8.9051 98.854 8.95355 98.7935 8.95355H93.8278C93.7672 8.95355 93.7188 8.9051 93.7188 8.84455V2.93413H89.6493V19.0909H93.7188V12.7445C93.7188 12.6839 93.7672 12.6354 93.8278 12.6354H98.7935C98.854 12.6354 98.9025 12.6839 98.9025 12.7445V19.0909H102.996V2.93413H98.9025ZM81.4619 15.7844C79.6331 15.7844 77.6589 14.2584 77.6589 10.9035C77.6589 7.83929 79.512 6.24057 81.3408 6.24057C82.6731 6.24057 83.6057 6.7977 84.3445 8.03308L87.4692 5.96201C85.8705 3.61237 83.969 2.54656 81.3166 2.54656C76.1208 2.54656 73.7954 6.74926 73.7954 10.9035C73.7954 15.954 76.8717 19.4785 81.2682 19.4785C84.5383 19.4785 86.028 18.2794 87.5904 16.063L84.4414 13.9435C83.7389 15.082 82.9759 15.7844 81.4619 15.7844ZM50.5655 2.52234C46.1206 2.52234 43.1412 5.92567 43.1412 11.0004C43.1412 16.0751 46.1206 19.4785 50.5655 19.4785C55.0104 19.4785 57.9899 16.0751 57.9899 11.0004C57.9899 5.92567 55.0104 2.52234 50.5655 2.52234ZM50.5655 15.7844C48.3854 15.7844 46.9805 13.9072 46.9805 11.0004C46.9805 8.10574 48.3854 6.24057 50.5655 6.24057C52.7577 6.24057 54.1747 8.10574 54.1747 11.0004C54.1747 13.9072 52.7577 15.7844 50.5655 15.7844Z" fill="#F80000"/>
</g>
<defs>
<clipPath id="clip0_412_1102">
<rect width="102.996" height="22" fill="white" transform="translate(0 0.000366211)"/>
</clipPath>
</defs>
</svg>
