<svg width="22" height="24" viewBox="0 0 22 24" fill="none" xmlns="http://www.w3.org/2000/svg">
<path d="M12.7 12.2002C10.4 12.2002 8.5 14.1002 8.5 16.4002C8.5 18.7002 10.4 20.6002 12.7 20.6002C15 20.6002 16.9 18.7002 16.9 16.4002C16.9 14.1002 15 12.2002 12.7 12.2002ZM12.7 19.7002C10.9 19.7002 9.5 18.3002 9.5 16.5002C9.5 14.7002 10.9 13.3002 12.7 13.3002C14.5 13.3002 15.9 14.7002 15.9 16.5002C15.9 18.3002 14.5 19.7002 12.7 19.7002Z" fill="#029AAD"/>
<path d="M19.4 9.8H14.9V7.8H16.9C17.2 7.8 17.4 7.6 17.4 7.3V0.5C17.4 0.2 17.2 0 16.9 0H8.5C8.2 0 8 0.2 8 0.5V7.3C8 7.6 8.2 7.8 8.5 7.8H10.5V9.8H2.6C1.2 9.8 0 11 0 12.4V20.7C0 22.1 1.2 23.3 2.6 23.3H19.4C20.8 23.3 22 22.1 22 20.7V12.4C22 11 20.8 9.8 19.4 9.8ZM9 1H16.5V6.8H14.5H11H9V1ZM13.9 7.8V9.7H11.5V7.8H13.9ZM21 20.7C21 21.6 20.3 22.3 19.4 22.3H2.6C1.7 22.3 1 21.6 1 20.7V12.4C1 11.5 1.7 10.8 2.6 10.8H19.4C20.3 10.8 21 11.5 21 12.4V20.7Z" fill="#029AAD"/>
<path d="M5.09961 13.4004C4.79961 13.4004 4.59961 13.6004 4.59961 13.9004V19.0004C4.59961 19.3004 4.79961 19.5004 5.09961 19.5004C5.39961 19.5004 5.59961 19.3004 5.59961 19.0004V13.9004C5.59961 13.6004 5.39961 13.4004 5.09961 13.4004Z" fill="#029AAD"/>
<path d="M11.4004 4.40039H14.0004C14.3004 4.40039 14.5004 4.20039 14.5004 3.90039C14.5004 3.60039 14.3004 3.40039 14.0004 3.40039H11.4004C11.1004 3.40039 10.9004 3.60039 10.9004 3.90039C10.9004 4.20039 11.1004 4.40039 11.4004 4.40039Z" fill="#029AAD"/>
<path d="M2.5 8.59961H4.6C4.9 8.59961 5.1 8.39961 5.1 8.09961C5.1 7.79961 4.9 7.59961 4.6 7.59961H2.5C2.3 7.59961 2 7.79961 2 8.09961C2 8.39961 2.3 8.59961 2.5 8.59961Z" fill="#029AAD"/>
</svg>
