<svg width="24" height="17" viewBox="0 0 24 17" fill="none" xmlns="http://www.w3.org/2000/svg">
<path d="M14.6004 8.94873H9.40039C9.10039 8.94873 8.90039 9.14873 8.90039 9.44873C8.90039 9.74873 9.10039 9.94873 9.40039 9.94873H14.7004C15.0004 9.94873 15.2004 9.74873 15.2004 9.44873C15.2004 9.14873 14.9004 8.94873 14.6004 8.94873Z" fill="#029AAD"/>
<path d="M13.3012 10.6499H10.7012C10.4012 10.6499 10.2012 10.8499 10.2012 11.1499C10.2012 11.4499 10.4012 11.6499 10.7012 11.6499H13.3012C13.6012 11.6499 13.8012 11.4499 13.8012 11.1499C13.8012 10.8499 13.6012 10.6499 13.3012 10.6499Z" fill="#029AAD"/>
<path d="M23.1 4.3499H21L19.1 0.649902C18.6 0.0499023 17.9 -0.350098 17.2 -0.350098H6.8C6.1 -0.350098 5.4 0.0499023 4.9 0.549902L3 4.3499H0.9C0.4 4.3499 0 4.7499 0 5.1499V6.3499C0 6.6499 0.1 6.8499 0.3 7.0499L1.2 8.0499V14.0499V14.2499C1.2 15.4499 2.2 16.3499 3.3 16.3499C4.5 16.3499 5.4 15.4499 5.4 14.2499H18.5C18.5 15.4499 19.5 16.3499 20.6 16.3499C21.8 16.3499 22.7 15.3499 22.7 14.2499V14.1499V14.0499V8.0499L23.6 7.0499C23.9 6.8499 24 6.6499 24 6.3499V5.1499C24 4.7499 23.6 4.3499 23.1 4.3499ZM5.8 1.1499L6 0.949902C6.2 0.749902 6.5 0.649902 6.8 0.649902H17.1C17.5 0.649902 17.9 0.849902 18.2 1.1499L20.1 4.8499L20.2 5.0499L19.8 5.6499H4.2L3.8 4.9499L3.9 4.7499L5.8 1.1499ZM2.2 9.0499L5.3 9.3499C5.8 9.4499 6.1 9.8499 6.1 10.3499V10.6499H2.2V9.0499ZM21.8 10.6499H17.9V10.2499C17.9 9.7499 18.3 9.3499 18.7 9.3499L21.8 9.0499V10.6499ZM23 6.3499L22.1 7.3499L21.8 7.6499V8.0499L18.5 8.3499C17.5 8.4499 16.8 9.3499 16.8 10.2499V11.6499H21.7V13.8499V13.9499V14.2499V14.3499C21.7 14.6499 21.6 14.9499 21.4 15.1499C21.2 15.3499 20.9 15.4499 20.6 15.4499C20 15.4499 19.5 14.9499 19.5 14.3499V13.3499H18.5H5.4H4.4V14.3499C4.4 14.9499 3.9 15.4499 3.3 15.4499C2.7 15.4499 2.2 14.9499 2.2 14.3499V14.1499V11.6499H7.1V10.2499C7.1 9.2499 6.4 8.4499 5.4 8.3499L2.2 8.0499V7.6499L1.9 7.3499L1 6.3499V5.3499H2.9L3.6 6.3499C3.7 6.4499 3.8 6.5499 4 6.5499H20.1C20.3 6.5499 20.4 6.4499 20.5 6.3499L21.2 5.3499H23V6.3499Z" fill="#029AAD"/>
</svg>
