<svg width="24" height="24" viewBox="0 0 24 24" fill="none" xmlns="http://www.w3.org/2000/svg">
<path d="M21.6 2H14.4C13.6 2 13 2.6 13 3.4V7C13 7.3 13.2 7.5 13.5 7.5C13.8 7.5 14 7.3 14 7V3.4C14 3.2 14.2 3 14.4 3H21.6C21.8 3 22 3.2 22 3.4V20.6C22 20.8 21.8 21 21.6 21H20.8C20.5 21 20.3 21.2 20.3 21.5C20.3 21.8 20.5 22 20.8 22H21.6C22.4 22 23 21.4 23 20.6V3.4C23 2.6 22.4 2 21.6 2Z" fill="#029AAD"/>
<path d="M21.0999 5.9V5.2C21.0999 4.5 20.5999 4 19.8999 4H19.1999C18.4999 4 17.9999 4.5 17.9999 5.2V5.9C17.9999 6.6 18.4999 7.1 19.1999 7.1H19.8999C20.5999 7.1 21.0999 6.6 21.0999 5.9ZM20.0999 5.9C20.0999 6 19.9999 6.1 19.8999 6.1H19.1999C19.0999 6.1 18.9999 6 18.9999 5.9V5.2C18.9999 5.1 19.0999 5 19.1999 5H19.8999C19.9999 5 20.0999 5.1 20.0999 5.2V5.9ZM20.4999 11.5C20.4999 11.2 20.2999 11 19.9999 11H18.9999C18.6999 11 18.4999 11.2 18.4999 11.5C18.4999 11.8 18.6999 12 18.9999 12H19.9999C20.2999 12 20.4999 11.8 20.4999 11.5ZM18.9999 9C18.6999 9 18.4999 9.2 18.4999 9.5C18.4999 9.8 18.6999 10 18.9999 10H19.9999C20.2999 10 20.4999 9.8 20.4999 9.5C20.4999 9.2 20.2999 9 19.9999 9H18.9999ZM17.9999 17.3V10C17.8999 8.8 16.8999 7.8 15.6999 7.8H4.29993C2.99993 7.9 1.99993 8.8 1.99993 10.1V17.3C1.69993 17.6 0.999935 18.6 0.299935 19.7C-6.55353e-05 20.1 -6.55502e-05 20.7 0.199935 21.2C0.499935 21.7 1.09993 22 1.79993 22H18.1999C18.9999 22 19.5999 21.7 19.8999 21.1C20.0999 20.6 19.9999 20.1 19.6999 19.7C18.9999 18.7 18.2999 17.7 17.9999 17.3ZM4.29993 8.9H15.6999C16.3999 8.9 16.8999 9.4 16.9999 10.1V17H2.99993V10.1C2.99993 9.4 3.49993 8.9 4.29993 8.9ZM18.9999 20.7C18.8999 20.9 18.6999 21 18.1999 21H1.79993C1.39993 21 1.19993 20.9 1.09993 20.7C0.999935 20.6 0.999935 20.4 1.09993 20.3C1.79993 19.3 2.39993 18.4 2.69993 18H17.1999C17.4999 18.4 18.1999 19.3 18.8999 20.3C18.9999 20.4 18.9999 20.6 18.9999 20.7Z" fill="#029AAD"/>
<path d="M11.5 19H8.5C8.2 19 8 19.2 8 19.5C8 19.8 8.2 20 8.5 20H11.5C11.8 20 12 19.8 12 19.5C12 19.2 11.8 19 11.5 19Z" fill="#029AAD"/>
</svg>
