<svg width="32" height="33" viewBox="0 0 32 33" fill="none" xmlns="http://www.w3.org/2000/svg">
<g clip-path="url(#clip0_412_1181)">
<path d="M32 16.6268C32 7.79027 24.8366 0.626831 16 0.626831C7.16344 0.626831 0 7.79027 0 16.6268C0 25.4634 7.16344 32.6268 16 32.6268C24.8366 32.6268 32 25.4634 32 16.6268Z" fill="#029AAD"/>
<path d="M17.3592 17.9465H19.5592L20.4392 14.4265H17.3592V12.6665C17.3592 11.7601 17.3592 10.9065 19.1192 10.9065H20.4392V7.94974C20.1523 7.9119 19.0691 7.82654 17.9251 7.82654C15.5359 7.82654 13.8392 9.2847 13.8392 11.9625V14.4265H11.1992V17.9465H13.8392V25.4265H17.3592V17.9465Z" fill="white"/>
</g>
<defs>
<clipPath id="clip0_412_1181">
<rect width="32" height="32" fill="white" transform="translate(0 0.626831)"/>
</clipPath>
</defs>
</svg>
