<svg width="24" height="20" viewBox="0 0 24 20" fill="none" xmlns="http://www.w3.org/2000/svg">
<g clip-path="url(#clip0_412_831)">
<path d="M15.8996 15.2998H11.0996C10.7996 15.2998 10.5996 15.4998 10.5996 15.7998C10.5996 16.0998 10.7996 16.2998 11.0996 16.2998H15.8996C16.1996 16.2998 16.3996 16.0998 16.3996 15.7998C16.3996 15.4998 16.1996 15.2998 15.8996 15.2998Z" fill="#029AAD"/>
<path d="M23.1 13.4999V12.7999C23.1 11.5999 22.6 10.4999 21.8 9.79991C21 9.09991 19.8 8.89991 18.6 9.19991L13.3 10.6999L12.4 8.69991C12.4 8.59991 12.2 7.79991 12.5 7.19991C12.8 6.79991 13.3 6.59991 14 6.49991C14.3 6.49991 16.5 6.29991 17 4.79991C17.4 3.89991 17 2.79991 15.8 1.49991C15.7 1.39991 14.3 -0.200093 12.7 0.0999065C11.6 0.299907 10.7 1.09991 10.1 2.59991L5.4 15.5999L1.6 16.0999C0.3 16.3999 0 17.0999 0 17.6999V18.0999C0 18.3999 0.2 18.5999 0.5 18.5999H6.9C7.2 18.5999 7.4 18.3999 7.4 18.0999V17.3999C7.4 16.6999 7 15.9999 6.4 15.6999L11.1 2.99991C11.6 1.89991 12.2 1.19991 12.9 1.09991C14 0.899907 15 2.09991 15.1 2.19991C15.9 3.09991 16.3 3.89991 16.1 4.39991C15.8 5.09991 14.4 5.39991 14 5.39991C12.9 5.49991 12.1 5.89991 11.7 6.59991C10.9 7.69991 11.3 8.99991 11.4 8.99991L12.2 10.8999C9.8 11.6999 8.5 13.5999 8.5 15.9999C8.5 18.6999 11.2 18.6999 12.6 18.6999H18.9H19C19.5 18.9999 20 19.0999 20.6 19.0999C22.5 19.0999 24.1 17.5999 24.1 15.5999C24 14.8999 23.7 14.1999 23.1 13.4999ZM6.5 17.5999H1C1 17.3999 1.1 17.1999 1.8 16.9999L5.9 16.3999C6.3 16.3999 6.5 16.7999 6.5 17.1999V17.5999ZM9.5 16.0999C9.5 13.9999 10.8 12.3999 13 11.8999L18.8 10.2999C19.7 10.0999 20.5 10.1999 21.1 10.6999C21.7 11.1999 22 11.8999 22 12.6999C21.5 12.4999 21 12.2999 20.5 12.2999C18.6 12.2999 17 13.7999 17 15.7999C17 16.4999 17.2 17.1999 17.6 17.6999H12.4C10 17.6999 9.5 17.1999 9.5 16.0999ZM20.5 18.2999C19.1 18.2999 18 17.1999 18 15.7999C18 14.3999 19.1 13.2999 20.5 13.2999C21.9 13.2999 23 14.3999 23 15.7999C23 17.1999 21.9 18.2999 20.5 18.2999Z" fill="#029AAD"/>
<path d="M20.4996 14.4004C19.6996 14.4004 19.0996 15.0004 19.0996 15.8004C19.0996 16.6004 19.6996 17.2004 20.4996 17.2004C21.2996 17.2004 21.8996 16.6004 21.8996 15.8004C21.9996 15.0004 21.2996 14.4004 20.4996 14.4004ZM20.4996 16.2004C20.2996 16.2004 20.0996 16.0004 20.0996 15.8004C20.0996 15.6004 20.2996 15.4004 20.4996 15.4004C20.6996 15.4004 20.8996 15.6004 20.8996 15.8004C20.9996 16.0004 20.7996 16.2004 20.4996 16.2004Z" fill="#029AAD"/>
</g>
<defs>
<clipPath id="clip0_412_831">
<rect width="24" height="20" fill="white"/>
</clipPath>
</defs>
</svg>
