<svg width="24" height="25" viewBox="0 0 24 25" fill="none" xmlns="http://www.w3.org/2000/svg">
<path d="M9.7429 18.728C9.16656 19.4263 8.42672 19.9716 7.58905 20.3153C6.75139 20.6591 5.84182 20.7907 4.94107 20.6986C4.04032 20.6064 3.17626 20.2932 2.42558 19.7869C1.67491 19.2806 1.06084 18.5969 0.637892 17.7963C0.214942 16.9957 -0.00380929 16.103 0.00105598 15.1976C0.00592125 14.2921 0.234252 13.4019 0.665782 12.6059C1.09731 11.8099 1.71869 11.1327 2.47476 10.6345C3.23083 10.1363 4.09821 9.83252 4.9999 9.75003L18.9999 9.72803C19.6854 9.80789 20.3519 10.0058 20.9699 10.313C21.7012 10.6806 22.3412 11.2067 22.8433 11.853C23.3453 12.4994 23.6969 13.2496 23.8722 14.049C24.0475 14.8485 24.0422 15.677 23.8566 16.4741C23.671 17.2712 23.3099 18.0169 22.7996 18.6567C22.2892 19.2966 21.6425 19.8144 20.9066 20.1726C20.1707 20.5307 19.3641 20.7201 18.5457 20.7269C17.7273 20.7338 16.9177 20.5579 16.1759 20.2121C15.4341 19.8662 14.7788 19.3592 14.2579 18.728H9.7429ZM5.2929 10.728L5.0899 10.746C4.35217 10.8136 3.64256 11.0624 3.02404 11.4701C2.40553 11.8778 1.89724 12.432 1.5443 13.0833C1.19136 13.7347 1.00468 14.4631 1.00084 15.2039C0.996996 15.9447 1.17611 16.675 1.52227 17.3299C1.86844 17.9849 2.37095 18.5443 2.9852 18.9584C3.59945 19.3725 4.30645 19.6286 5.04343 19.7039C5.78041 19.7792 6.52459 19.6714 7.20989 19.39C7.8952 19.1086 8.50044 18.6624 8.9719 18.091L9.2719 17.728H14.7279L15.0279 18.091C15.4994 18.6624 16.1046 19.1086 16.7899 19.39C17.4752 19.6714 18.2194 19.7792 18.9564 19.7039C19.6933 19.6286 20.4003 19.3725 21.0146 18.9584C21.6288 18.5443 22.1314 17.9849 22.4775 17.3299C22.8237 16.675 23.0028 15.9447 22.999 15.2039C22.9951 14.4631 22.8084 13.7347 22.4555 13.0833C22.1026 12.432 21.5943 11.8778 20.9757 11.4701C20.3572 11.0624 19.6476 10.8136 18.9099 10.746L18.7059 10.728H5.2939H5.2929ZM14.4999 17.728V18.728H9.4999V17.728H14.4999ZM5.4999 10.728V9.72803H18.4999V10.728H5.4999ZM3.4999 15.728C3.36729 15.728 3.24011 15.6753 3.14634 15.5816C3.05258 15.4878 2.9999 15.3606 2.9999 15.228C2.9999 15.0954 3.05258 14.9682 3.14634 14.8744C3.24011 14.7807 3.36729 14.728 3.4999 14.728H7.4999C7.63251 14.728 7.75968 14.7807 7.85345 14.8744C7.94722 14.9682 7.9999 15.0954 7.9999 15.228C7.9999 15.3606 7.94722 15.4878 7.85345 15.5816C7.75968 15.6753 7.63251 15.728 7.4999 15.728H3.4999ZM4.9999 13.228C4.9999 13.0954 5.05258 12.9682 5.14634 12.8744C5.24011 12.7807 5.36729 12.728 5.4999 12.728C5.63251 12.728 5.75968 12.7807 5.85345 12.8744C5.94722 12.9682 5.9999 13.0954 5.9999 13.228V17.228C5.9999 17.3606 5.94722 17.4878 5.85345 17.5816C5.75968 17.6753 5.63251 17.728 5.4999 17.728C5.36729 17.728 5.24011 17.6753 5.14634 17.5816C5.05258 17.4878 4.9999 17.3606 4.9999 17.228V13.228ZM12.9999 10.228C12.9999 10.3606 12.9472 10.4878 12.8535 10.5816C12.7597 10.6753 12.6325 10.728 12.4999 10.728C12.3673 10.728 12.2401 10.6753 12.1463 10.5816C12.0526 10.4878 11.9999 10.3606 11.9999 10.228V9.20003C12.0429 8.43003 12.4709 7.73203 13.1759 7.32603L15.3589 6.29603C15.7459 6.07103 15.9889 5.66203 15.9999 5.22803V3.22803C15.9999 3.09542 16.0526 2.96824 16.1463 2.87448C16.2401 2.78071 16.3673 2.72803 16.4999 2.72803C16.6325 2.72803 16.7597 2.78071 16.8535 2.87448C16.9472 2.96824 16.9999 3.09542 16.9999 3.22803V5.24103C16.9789 6.03503 16.5479 6.76103 15.8239 7.18003L13.6409 8.21003C13.2639 8.42903 13.0229 8.82103 12.9999 9.22803V10.228ZM19.9999 14.728C19.7347 14.728 19.4803 14.6226 19.2928 14.4351C19.1053 14.2476 18.9999 13.9932 18.9999 13.728C18.9999 13.4628 19.1053 13.2084 19.2928 13.0209C19.4803 12.8334 19.7347 12.728 19.9999 12.728C20.2651 12.728 20.5195 12.8334 20.707 13.0209C20.8945 13.2084 20.9999 13.4628 20.9999 13.728C20.9999 13.9932 20.8945 14.2476 20.707 14.4351C20.5195 14.6226 20.2651 14.728 19.9999 14.728ZM17.9999 17.728C17.7347 17.728 17.4803 17.6226 17.2928 17.4351C17.1053 17.2476 16.9999 16.9932 16.9999 16.728C16.9999 16.4628 17.1053 16.2084 17.2928 16.0209C17.4803 15.8334 17.7347 15.728 17.9999 15.728C18.2651 15.728 18.5195 15.8334 18.707 16.0209C18.8945 16.2084 18.9999 16.4628 18.9999 16.728C18.9999 16.9932 18.8945 17.2476 18.707 17.4351C18.5195 17.6226 18.2651 17.728 17.9999 17.728ZM10.9999 13.728V12.728H12.9999V13.728H10.9999ZM10.9999 15.728V14.728H12.9999V15.728H10.9999Z" fill="#029AAD"/>
</svg>
