<svg width="17" height="16" viewBox="0 0 17 16" fill="none" xmlns="http://www.w3.org/2000/svg">
<path d="M10.1827 6.25468C10.2421 6.25468 10.2718 6.25468 10.3311 6.22499C11.3701 5.92815 12.1419 5.51256 12.6168 5.00792C13.0324 4.56266 13.2105 4.02833 13.2105 3.40496C13.2105 2.69253 12.884 1.9801 12.3497 1.50514C11.8154 1.03019 11.1029 0.763027 10.3608 0.822396C9.73744 0.881765 9.2328 1.11924 8.81722 1.56451C7.897 2.60347 7.6892 4.59234 7.65952 5.69067C7.65952 5.98752 7.86731 6.22499 8.16416 6.22499C8.461 6.22499 8.69848 6.0172 8.69848 5.72035C8.75785 4.11739 9.08438 2.84095 9.58902 2.27694C9.79681 2.03946 10.0937 1.89104 10.4202 1.86136C10.8655 1.83167 11.281 1.9801 11.6076 2.27694C11.9341 2.57379 12.1122 2.98937 12.1419 3.40496C12.1419 3.76117 12.0528 4.02833 11.8154 4.29549C11.4888 4.65171 10.8655 4.97824 10.0343 5.21572C9.76713 5.30477 9.58902 5.57193 9.67807 5.86878C9.73744 6.07657 9.94523 6.25468 10.1827 6.25468Z" fill="white"/>
<path d="M6.17459 6.25469C6.41207 6.25469 6.61986 6.10627 6.67923 5.86879C6.76829 5.60163 6.59018 5.30479 6.32302 5.21573C5.49185 4.97826 4.86847 4.65172 4.54194 4.29551C4.33415 4.05803 4.21541 3.76119 4.21541 3.40497C4.21541 2.9597 4.39352 2.5738 4.74973 2.27696C5.07626 1.98011 5.49185 1.83169 5.93712 1.86137C6.29333 1.89106 6.56049 2.0098 6.76829 2.27696C7.27292 2.84096 7.59945 4.1174 7.65882 5.72037C7.65882 6.01722 7.8963 6.25469 8.19315 6.22501C8.48999 6.22501 8.69778 5.98753 8.69778 5.69069C8.6681 4.59236 8.46031 2.60349 7.54009 1.56453C7.1245 1.11926 6.61986 0.881781 5.99649 0.822412C5.28406 0.763043 4.57163 1.00052 4.00762 1.50516C3.4733 1.98011 3.14676 2.69254 3.14676 3.40497C3.14676 4.02835 3.32487 4.56267 3.74046 5.00794C4.21541 5.51258 4.95752 5.92816 6.02617 6.22501C6.08554 6.22501 6.11522 6.25469 6.17459 6.25469Z" fill="white"/>
<path d="M0.9206 7.38283H15.4364C15.7035 7.38283 15.941 7.14535 15.941 6.87819V6.01733C15.941 5.75017 15.7035 5.5127 15.4364 5.5127H0.950285C0.683124 5.5127 0.445646 5.75017 0.445646 6.01733V6.87819C0.415962 7.14535 0.653439 7.38283 0.9206 7.38283Z" fill="white"/>
<path d="M0.920429 7.62023H15.4362C15.8518 7.62023 16.1783 7.2937 16.1783 6.87812V6.01726C16.1783 5.60168 15.8518 5.27515 15.4362 5.27515H0.950114C0.53453 5.27515 0.207999 5.60168 0.207999 6.01726V6.87812C0.178315 7.2937 0.53453 7.62023 0.920429 7.62023ZM15.4362 5.7501C15.5846 5.7501 15.7034 5.86884 15.7034 6.01726V6.87812C15.7034 7.02654 15.5846 7.14528 15.4362 7.14528H0.950114C0.801691 7.14528 0.682953 7.02654 0.682953 6.87812V6.01726C0.682953 5.86884 0.801691 5.7501 0.950114 5.7501H15.4362Z" fill="white"/>
<path d="M6.73849 8.30298V15.0414H9.6179V8.30298H14.9908V14.1212C14.9908 15.0117 14.2784 15.7241 13.3878 15.7241H2.96855C2.07801 15.7241 1.36558 15.0117 1.36558 14.1212V8.30298H6.73849Z" fill="white"/>
</svg>
