<svg width="25" height="23" viewBox="0 0 25 23" fill="none" xmlns="http://www.w3.org/2000/svg">
<path d="M12.3626 2.01205C15.2662 -0.582098 19.7533 -0.495996 22.5507 2.29249C25.3469 5.08222 25.4433 9.52509 22.8424 12.423L12.3601 22.8686L1.88021 12.423C-0.720594 9.52509 -0.622939 5.07483 2.17195 2.29249C4.97178 -0.492305 9.45026 -0.585789 12.3626 2.01205ZM20.8004 4.03054C18.9462 2.18302 15.9548 2.10798 14.014 3.84234L12.3638 5.31591L10.7123 3.84356C8.76545 2.10676 5.7802 2.18302 3.92107 4.03299C2.07924 5.86574 1.98653 8.79937 3.68373 10.7379L12.3613 19.3863L21.039 10.7391C22.7374 8.79937 22.6446 5.86944 20.8004 4.03054Z" fill="white"/>
</svg>
