<svg width="101" height="22" viewBox="0 0 101 22" fill="none" xmlns="http://www.w3.org/2000/svg">
<path d="M37.5373 7.28169H35.2342V18.2773H37.5373V13.8196H42.5894V18.2773H44.8182V7.28169H42.5894V11.7394H37.5373V7.28169ZM55.2195 13.5967C55.2195 15.3798 54.3279 16.3457 52.6935 16.3457C51.059 16.3457 50.1674 15.3798 50.1674 13.5225V7.28169H47.9386V13.5967C47.9386 16.7171 49.6474 18.5002 52.6935 18.5002C55.7395 18.5002 57.4483 16.7171 57.4483 13.5225V7.28169H55.2195V13.5967ZM76.765 7.28169L74.2389 14.8598L71.7872 7.28169H69.4098L73.2731 18.2773H75.1305L77.6565 11.0707L80.1082 18.2773H82.0399L85.8289 7.28169H83.5258L81.0741 14.8598L78.548 7.28169H76.765ZM93.927 11.5165H89.8408V9.28765H95.7844V7.28169H87.612V18.2773H96.0073V16.2714H89.8408V13.5225H93.927V11.5165ZM98.6819 7.28169H100.911V18.2773H98.6819V7.28169ZM66.8838 15.9742L67.8496 18.2773H70.227L65.3979 7.28169L65.3236 7.2074H63.3919L58.5627 18.2773H60.8659L61.8317 16.1228L61.906 15.9742H66.8838ZM64.3577 10.0306L65.9179 13.7453L65.9922 13.9682H62.5747L62.649 13.7453L64.3577 10.0306Z" fill="#262729"/>
<path d="M13.2434 17.1624C13.2434 17.1624 13.3177 17.0881 13.2434 17.0881C9.82587 9.65867 5.14531 3.93798 5.14531 3.93798C5.14531 3.93798 2.61929 6.31541 2.76788 8.76713C2.84218 10.6245 4.25377 11.6646 4.25377 11.6646C6.48261 13.8192 11.8318 16.5681 13.0948 17.1624H13.2434ZM12.3519 19.0198C12.3519 18.9455 12.2033 18.9455 12.2033 18.9455L3.28794 19.2427C4.25377 20.9515 5.88826 22.2888 7.59703 21.9173C8.78575 21.6201 11.4604 19.7627 12.2776 19.1684C12.4262 19.0198 12.3519 19.0198 12.3519 19.0198ZM12.5005 18.2026C12.5748 18.1283 12.5005 18.054 12.5005 18.054C8.56286 15.3794 0.98481 11.3674 0.98481 11.3674C0.316158 13.522 1.20769 15.2308 1.20769 15.2308C2.17352 17.311 4.03089 17.9054 4.03089 17.9054C4.84813 18.2768 5.73967 18.2768 5.73967 18.2768H12.4262C12.5005 18.2768 12.5005 18.2026 12.5005 18.2026ZM13.0948 0.0746609C12.7234 0.0746609 11.6832 0.371839 11.6832 0.371839C9.30581 0.966197 8.78575 3.12074 8.78575 3.12074C8.33998 4.45804 8.78575 5.94394 8.78575 5.94394C9.60299 9.43579 13.4663 15.2308 14.2836 16.4195L14.3578 16.4938C14.4321 16.4938 14.4321 16.4195 14.4321 16.4195C15.7694 3.41792 13.0948 0.0746609 13.0948 0.0746609ZM16.0666 16.4195C16.1409 16.4195 16.2152 16.3452 16.2152 16.3452C17.1067 15.0822 20.8958 9.36149 21.713 5.86964C21.713 5.86964 22.1588 4.16087 21.713 3.04645C21.713 3.04645 21.1187 0.891902 18.7412 0.297545C18.7412 0.297545 18.0726 0.148956 17.3296 0.000366211C17.3296 0.000366211 14.655 3.41792 15.9923 16.2709C15.9923 16.4195 16.0666 16.4195 16.0666 16.4195ZM18.1469 18.9455C18.1469 18.9455 18.0726 18.9455 18.0726 19.0198V19.1684C18.9641 19.7627 21.4901 21.6201 22.7531 21.9173C22.7531 21.9173 25.0563 22.7345 27.0622 19.2427L18.1469 18.9455ZM29.514 11.2932C29.514 11.2932 21.9359 15.3794 17.9983 18.054C17.9983 18.054 17.924 18.1283 17.924 18.2026C17.924 18.2026 17.924 18.2768 17.9983 18.2768H24.8334C24.8334 18.2768 25.502 18.2768 26.3936 17.9054C26.3936 17.9054 28.2509 17.311 29.2911 15.1565C29.2911 15.0822 30.1826 13.3734 29.514 11.2932ZM17.2553 17.1624C17.2553 17.1624 17.3296 17.2367 17.4039 17.1624C18.6669 16.4938 24.0161 13.8192 26.245 11.6646C26.245 11.6646 27.6566 10.5502 27.7309 8.76713C27.8795 6.24112 25.3535 3.93798 25.3535 3.93798C25.3535 3.93798 20.6729 9.51008 17.2553 17.0138C17.2553 17.0138 17.181 17.0881 17.2553 17.1624Z" fill="#CF0A2C"/>
</svg>
