<svg width="108" height="22" viewBox="0 0 108 22" fill="none" xmlns="http://www.w3.org/2000/svg">
<path d="M45.6622 4.71922C43.7376 4.71922 41.5488 5.61131 40.2114 7.39765L40.2123 7.39399L40.2114 7.39485L40.2123 4.99979H35.622V21.7161H40.2114V12.2041C40.2114 10.4923 41.5389 8.67259 43.9964 8.67259C45.8956 8.67259 47.8611 9.99361 47.8611 12.2041V21.7161H52.4514V11.3536C52.4514 7.50898 49.7006 4.71922 45.6622 4.71922ZM85.076 5.00043L80.9262 16.3873L76.7765 5.00043H71.5329L78.4108 21.7114H83.4408L90.3187 5.00043H85.076ZM21.9182 10.0362C22.6999 8.98654 23.9451 8.37049 25.4489 8.37049C27.1031 8.37049 28.358 9.31512 29.007 10.7094L20.9872 14.0366C20.7682 12.329 21.2051 10.9936 21.9182 10.0362ZM30.7369 16.5765C28.805 18.0063 27.7012 18.3474 25.9394 18.3474C24.354 18.3474 23.1127 17.8551 22.2376 16.9919L33.9728 12.1238C33.7166 10.3095 33.028 8.68896 31.9686 7.45644C30.4266 5.66579 28.1444 4.71836 25.3658 4.71836C20.3186 4.71836 16.5125 8.44198 16.5125 13.3598C16.5125 18.4053 20.3274 22.0004 25.8716 22.0004C28.9779 22.0004 32.154 20.5282 33.6397 18.808L30.7369 16.5765ZM16.075 17.5011H5.64223V0.000366211H0.989258V21.7159H16.075V17.5011ZM98.5612 8.65192C95.9977 8.65192 94.1362 10.5946 94.1362 13.3581C94.1362 15.9967 96.108 18.0642 98.6228 18.0642C101.187 18.0642 103.047 16.0682 103.047 13.3581C103.047 10.7195 101.077 8.65192 98.5612 8.65192ZM98.5612 21.9978C93.5411 21.9978 89.6075 18.2578 89.6075 13.3581C89.6075 8.51347 93.5682 4.71857 98.6228 4.71857C103.643 4.71857 107.575 8.45834 107.575 13.3581C107.575 18.2018 103.616 21.9976 98.5612 21.9976V21.9978ZM63.22 8.65192C60.6566 8.65192 58.7962 10.5946 58.7962 13.3581C58.7962 15.9967 60.767 18.0642 63.2825 18.0642C65.8459 18.0642 67.7063 16.0682 67.7063 13.3581C67.7063 10.7195 65.7355 8.65192 63.22 8.65192ZM63.22 21.9978C58.1999 21.9978 54.2674 18.2578 54.2674 13.3581C54.2674 8.51347 58.2271 4.71857 63.2825 4.71857C68.3017 4.71857 72.2351 8.45834 72.2351 13.3581C72.2351 18.2018 68.2746 21.9976 63.22 21.9976" fill="#E60012"/>
</svg>
