<svg width="79" height="36" viewBox="0 0 79 36" fill="none" xmlns="http://www.w3.org/2000/svg">
<path d="M17.3644 35.0356C26.7722 35.0356 34.413 27.4173 34.413 18.0041C34.413 8.59056 26.7722 0.96521 17.3644 0.96521C7.94201 0.96521 0.315796 8.59056 0.315796 18.0041C0.315796 27.4173 7.94201 35.0356 17.3644 35.0356Z" fill="#A50034"/>
<path d="M21.4303 25.4733V24.1293H18.048V10.5257H16.6783V25.4733H21.4303ZM11.9202 14.6041C13.0507 14.6041 13.962 13.6849 13.962 12.5623C13.962 11.4388 13.0507 10.516 11.9202 10.516C10.7896 10.516 9.8783 11.4388 9.8783 12.5623C9.8783 13.6858 10.7896 14.6041 11.9202 14.6041Z" fill="white"/>
<path d="M18.0476 3.74678C17.8694 3.73796 17.5306 3.72693 17.3687 3.72693C9.49946 3.72693 3.09509 10.1335 3.09509 17.9979C3.09509 21.8179 4.5794 25.3983 7.26792 28.0908C9.96747 30.7771 13.5497 32.2614 17.3687 32.2614C21.1732 32.2614 24.7546 30.7771 27.4492 28.0908C30.1444 25.3983 31.6357 21.8179 31.6357 17.9979V17.3632H21.4436V18.6768H30.2763C30.2763 18.7055 30.2763 18.8449 30.2701 18.881C29.8211 25.6043 24.2058 30.9293 17.3687 30.9293C13.9078 30.9293 10.6626 29.5835 8.22026 27.1394C5.76994 24.7053 4.41972 21.4628 4.41972 17.9975C4.41972 14.552 5.76994 11.2927 8.22026 8.85122C10.6626 6.41192 13.9078 5.06612 17.3687 5.06612C17.5178 5.06612 17.8804 5.06612 18.0476 5.07494V3.74678Z" fill="white"/>
<path d="M47.2347 6.70134H42.1117V28.8791H57.8467V24.562H47.2347V6.70134ZM69.1165 20.4276H73.2889V24.3053C72.5196 24.5982 71.0194 24.8902 69.592 24.8902C64.9811 24.8902 63.4452 22.5484 63.4452 17.792C63.4452 13.2561 64.9079 10.5817 69.5188 10.5817C72.0812 10.5817 73.5447 11.3872 74.7507 12.9244L77.9359 9.99593C75.9959 7.21699 72.592 6.37537 69.4094 6.37537C62.2353 6.37537 58.4669 10.2906 58.4669 17.7549C58.4669 25.1831 61.87 29.2081 69.3732 29.2081C72.8125 29.2081 76.1794 28.3303 78.0083 27.0498V16.2913H69.1165V20.4276Z" fill="#6B6B6B"/>
</svg>
