<svg width="39" height="39" viewBox="0 0 39 39" fill="none" xmlns="http://www.w3.org/2000/svg">
<path fill-rule="evenodd" clip-rule="evenodd" d="M36.6934 38.6704H2.32279C1.54292 38.6704 0.910767 38.0132 0.910767 37.2024V1.46808C0.910767 0.657269 1.54292 0.000411987 2.32279 0.000411987H36.6934C37.4733 0.000411987 38.1054 0.657269 38.1054 1.46808V37.2024C38.1054 38.0132 37.4732 38.6704 36.6934 38.6704Z" fill="#FF6700"/>
<path d="M30.076 12.1642H27.1499C27.0246 12.1642 26.9231 12.2678 26.9231 12.3955V26.2762C26.9231 26.4027 27.0246 26.5063 27.1499 26.5063H30.076C30.2003 26.5063 30.3031 26.4027 30.3031 26.2761V12.3955C30.3031 12.2678 30.2003 12.1642 30.076 12.1642ZM20.0848 12.1642H8.93855C8.81325 12.1642 8.71252 12.2678 8.71252 12.3955V26.2762C8.71252 26.4027 8.81325 26.5063 8.93855 26.5063H11.8654C11.99 26.5063 12.0932 26.4027 12.0932 26.2761V15.3819C12.0932 15.2561 12.194 15.1517 12.3193 15.1517H18.624C20.397 15.1517 20.9003 16.5635 20.9003 17.4742V26.2762C20.9003 26.4027 21.0021 26.5063 21.1274 26.5063H24.0525C24.177 26.5063 24.2792 26.4027 24.2792 26.2761V16.4292C24.2792 15.6169 24.1852 14.449 23.1772 13.4209C22.1226 12.3478 21.1605 12.1642 20.0848 12.1642" fill="white"/>
<path d="M18.035 17.6922H14.9621C14.8368 17.6922 14.734 17.7958 14.734 17.9227V26.2765C14.734 26.4027 14.8368 26.5063 14.9621 26.5063H18.035C18.1592 26.5063 18.261 26.4027 18.261 26.2765V17.9227C18.261 17.7958 18.1592 17.6922 18.035 17.6922Z" fill="white"/>
</svg>
