<svg width="32" height="33" viewBox="0 0 32 33" fill="none" xmlns="http://www.w3.org/2000/svg">
<g clip-path="url(#clip0_412_1184)">
<path d="M16 0.626831C7.16 0.626831 0 7.78683 0 16.6268C0 25.4668 7.16 32.6268 16 32.6268C24.84 32.6268 32 25.4668 32 16.6268C32 7.78683 24.84 0.626831 16 0.626831Z" fill="#029AAD"/>
<path d="M15.01 20.7269C13.45 20.5669 12.05 20.1769 10.85 19.2369C10.7 19.1169 10.55 19.0069 10.41 18.8769C9.87999 18.3669 9.82999 17.7969 10.25 17.1969C10.61 16.6869 11.2 16.5469 11.83 16.8469C11.95 16.9069 12.06 16.9769 12.17 17.0469C14.41 18.5869 17.49 18.6269 19.73 17.1169C19.95 16.9469 20.19 16.8069 20.47 16.7369C21.01 16.5969 21.51 16.7969 21.79 17.2669C22.12 17.8069 22.11 18.3269 21.71 18.7469C21.09 19.3869 20.34 19.8469 19.51 20.1669C18.72 20.4669 17.86 20.6269 17.01 20.7269C17.14 20.8669 17.2 20.9369 17.28 21.0169C18.44 22.1769 19.6 23.3369 20.75 24.4969C21.14 24.8969 21.22 25.3869 21.01 25.8469C20.77 26.3469 20.24 26.6869 19.73 26.6469C19.4 26.6269 19.14 26.4569 18.92 26.2269C18.05 25.3469 17.16 24.4869 16.3 23.5969C16.05 23.3369 15.93 23.3869 15.71 23.6069C14.83 24.5069 13.94 25.3969 13.04 26.2869C12.64 26.6869 12.16 26.7569 11.69 26.5269C11.19 26.2869 10.88 25.7769 10.9 25.2669C10.92 24.9269 11.09 24.6569 11.32 24.4269C12.46 23.2869 13.61 22.1369 14.75 20.9969C14.83 20.9269 14.9 20.8469 15.01 20.7269Z" fill="white"/>
<path d="M15.96 16.7468C13.18 16.7368 10.91 14.4368 10.92 11.6568C10.94 8.84682 13.21 6.57682 16.02 6.58682C18.83 6.59682 21.09 8.89682 21.07 11.7368C21.06 14.5068 18.77 16.7568 15.96 16.7468ZM18.48 11.6668C18.48 10.2868 17.38 9.18683 16 9.18683C14.61 9.18683 13.5 10.3068 13.51 11.6968C13.52 13.0768 14.63 14.1668 16.01 14.1568C17.39 14.1468 18.49 13.0468 18.48 11.6668Z" fill="white"/>
</g>
<defs>
<clipPath id="clip0_412_1184">
<rect width="32" height="32" fill="white" transform="translate(0 0.626831)"/>
</clipPath>
</defs>
</svg>
