<svg width="90" height="22" viewBox="0 0 90 22" fill="none" xmlns="http://www.w3.org/2000/svg">
<path d="M23.5375 11.3912V0.782047H25.1157H26.6938V1.47975C26.6938 1.86964 26.6938 2.17745 26.7135 2.17745C26.7332 2.17745 26.9305 2.05432 27.1672 1.89016C29.9684 0.0638237 34.0518 -0.490232 37.7209 0.474237C41.0153 1.3361 43.4022 3.38817 44.2702 6.07637C44.7633 7.65645 44.7436 9.40071 44.1912 10.9192C43.5205 12.8071 42.12 14.3257 40.1078 15.3722C38.3522 16.2751 36.3401 16.7471 34.0912 16.7471C32.2172 16.7471 30.4813 16.4188 28.9426 15.7826C28.3311 15.5364 27.5618 15.126 27.0883 14.7976L26.7332 14.5514V18.2656V21.9798H25.1551H23.577V11.3912H23.5375ZM35.6299 13.9152C37.425 13.6485 38.8059 13.0534 39.8317 12.1299C40.6207 11.4117 41.1731 10.4267 41.3703 9.35966C41.4493 8.90821 41.4493 7.88218 41.3703 7.43073C41.1336 6.15845 40.4235 5.05034 39.378 4.27055C38.9637 3.96274 38.0957 3.51129 37.5434 3.3266C36.0047 2.79307 34.1307 2.6289 32.3948 2.89567C29.4161 3.34712 27.4039 4.88617 26.8516 7.12292C26.6149 8.10791 26.6543 9.17498 26.97 10.0984C27.6801 12.212 29.7909 13.6074 32.7893 13.9768C33.4205 14.0178 35.0578 13.9973 35.6299 13.9152ZM46.1639 11.3912V0.782047H47.742H49.3202V1.47975C49.3202 1.86964 49.3202 2.17745 49.3399 2.17745C49.3399 2.17745 49.5174 2.05433 49.7344 1.9312C50.2079 1.60287 51.1547 1.1309 51.7465 0.905172C54.3307 -0.100339 57.5067 -0.243984 60.2684 0.474237C64.7858 1.64391 67.4489 4.88617 67.1924 8.88769C66.9952 11.9453 65.0422 14.4488 61.8268 15.7826C60.7813 16.2136 59.6963 16.4803 58.3549 16.665C57.6448 16.7471 55.7313 16.7471 54.9817 16.665C52.8907 16.3982 51.0364 15.7621 49.5963 14.7771L49.3004 14.5719V18.2861V22.0004H47.7223H46.1442V11.3912H46.1639ZM58.3155 13.8947C60.7813 13.5048 62.5369 12.4788 63.4444 10.8372C63.977 9.8932 64.1743 8.62092 63.977 7.45125C63.5627 5.00929 61.5112 3.3266 58.3549 2.85463C56.2836 2.54682 53.9362 2.85463 52.3383 3.65493C50.7207 4.47576 49.7344 5.72752 49.3991 7.36917C49.3202 7.8001 49.3202 8.90821 49.3991 9.33915C49.6358 10.4883 50.1684 11.4322 50.9772 12.1299C52.1016 13.1149 53.5416 13.6895 55.4354 13.9152C56.0864 14.0178 57.6842 13.9973 58.3155 13.8947ZM10.4391 16.706C8.76234 16.5419 7.32231 16.2136 6.09926 15.6595C3.31781 14.4283 1.56215 12.3352 1.08871 9.70852C0.99008 9.21602 0.970356 8.06686 1.02954 7.53333C1.36489 4.37315 3.61372 1.86964 7.14477 0.699965C9.01879 0.0638261 11.3465 -0.141383 13.4178 0.145906C17.225 0.658922 20.1051 2.48526 21.3676 5.2145C22.3934 7.43073 22.275 10.1189 21.0323 12.1915C20.4799 13.1149 19.5528 14.0794 18.6059 14.7361C17.1264 15.7416 15.3707 16.3572 13.2403 16.6445C12.7866 16.706 10.8336 16.7471 10.4391 16.706ZM12.6879 13.9563C14.345 13.7716 15.7455 13.2791 16.7911 12.4993C17.6393 11.8632 18.3297 10.9398 18.6256 9.97528C18.8032 9.42122 18.8426 9.15446 18.8426 8.37468C18.8426 7.61541 18.8032 7.34865 18.6256 6.77407C18.0536 4.92721 16.3373 3.55233 13.9702 2.99827C11.8791 2.5263 9.45277 2.69046 7.65766 3.42921C6.3557 3.96274 5.32992 4.82461 4.73813 5.89168C4.10688 7.02031 3.94907 8.57988 4.36332 9.91372C4.79731 11.3502 5.96117 12.5609 7.55902 13.2381C8.42699 13.6074 9.49223 13.8537 10.5575 13.9563C10.952 14.0178 12.2539 13.9973 12.6879 13.9563ZM78.1801 16.706C78.1209 16.706 77.8842 16.665 77.6672 16.6445C75.9116 16.4803 74.077 15.9057 72.7159 15.1054C70.8813 14.0178 69.6188 12.4993 69.027 10.673C68.6325 9.44175 68.5733 8.04635 68.8297 6.77407C69.244 4.84513 70.3684 3.20348 72.1241 1.99276C74.4321 0.392153 77.825 -0.305546 81.0996 0.125387C83.8219 0.474238 86.0707 1.52079 87.6291 3.14192C88.8127 4.37316 89.5032 5.83012 89.7004 7.51281C89.7596 7.96426 89.7399 8.84665 89.6807 9.31863C89.2664 12.725 86.702 15.2901 82.7567 16.2956C81.5534 16.6034 80.8037 16.6855 79.4032 16.706C78.8114 16.7266 78.259 16.7266 78.1801 16.706ZM80.2711 13.9563C82.3621 13.7511 84.0784 13.0329 85.183 11.9042C85.9326 11.1244 86.3666 10.2831 86.5244 9.25706C86.6034 8.82613 86.5836 7.94374 86.5244 7.51281C86.1496 5.15294 84.1375 3.42921 81.1588 2.91619C80.4487 2.79307 79.9752 2.75203 79.2256 2.75203C75.8918 2.75203 73.3077 4.06535 72.3016 6.24053C72.0057 6.89719 71.8676 7.57437 71.8676 8.37468C71.8676 9.44175 72.1043 10.2831 72.6369 11.1244C73.6233 12.6635 75.4973 13.6485 77.9828 13.9358C78.4957 13.9973 79.7582 14.0178 80.2711 13.9563Z" fill="#006B33"/>
</svg>
