<svg width="120" height="22" viewBox="0 0 120 22" fill="none" xmlns="http://www.w3.org/2000/svg">
<path d="M40.7101 0.441507H34.2641V8.83518H27.554V0.441507H21.1079V21.5592H27.554V13.2526H34.2641V21.5592H40.7101V0.441507ZM63.1333 17.3159V0.441507H56.6872V21.5592H68.3429L69.3122 17.3159H63.1333ZM51.9217 0.441507H45.4757V21.5592H51.9217V0.441507ZM78.054 0.441507H71.6109V21.5592H78.054V0.441507ZM109.834 5.83122C109.834 4.68185 110.983 4.15069 112.835 4.15069C114.867 4.15069 117.075 4.59483 118.576 5.21603L118.048 0.618563C116.367 0.26445 114.867 0.000366211 112.133 0.000366211C106.923 0.000366211 103.391 2.05602 103.391 6.36239C103.391 13.7838 113.459 12.2833 113.459 15.7284C113.459 17.0518 112.484 17.757 110.101 17.757C107.985 17.757 104.714 17.0518 102.773 16.0795L103.481 20.941C105.423 21.6493 108.07 22.0004 110.191 22.0004C115.575 22.0004 119.989 20.2328 119.989 14.9301C119.989 7.86587 109.834 9.18929 109.834 5.83122ZM91.6513 16.5236C97.6502 16.5236 101.449 13.4296 101.449 8.03993C101.449 2.12204 97.3891 0.000366211 90.766 0.000366211C88.2062 0.000366211 85.1152 0.177423 82.9095 0.441507V21.5592H89.3556V16.5236H91.6513ZM95.0934 8.12995C95.0934 10.8668 93.77 12.7244 90.4119 12.7244H89.3556V3.99764C89.7307 3.97663 90.0818 3.97663 90.4119 3.97663C93.5899 3.97663 95.0934 5.47711 95.0934 8.12995ZM8.75001 16.5236C14.7519 16.5236 18.5481 13.4296 18.5481 8.03993C18.5481 2.12204 14.4878 0.000366211 7.86773 0.000366211C5.30492 0.000366211 2.21694 0.177423 0.00823975 0.441507V21.5592H6.45429V16.5236H8.75001ZM12.1951 8.12995C12.1951 10.8668 10.8687 12.7244 7.51362 12.7244H6.45429V3.99764C6.82941 3.97663 7.18352 3.97663 7.51362 3.97663C10.6916 3.97663 12.1951 5.47711 12.1951 8.12995Z" fill="#0B5ED7"/>
</svg>
