<svg width="136" height="22" viewBox="0 0 136 22" fill="none" xmlns="http://www.w3.org/2000/svg">
<path d="M9.08013 15.0614C9.26616 15.5473 9.20718 16.1699 9.11643 16.5473C8.95763 17.2171 8.52205 17.901 7.23347 17.901C6.02657 17.901 5.29154 17.1746 5.29154 16.0803V14.1322H0.105469V15.6793C0.105469 20.1604 3.49479 21.5142 7.12912 21.5142C10.6228 21.5142 13.4994 20.2783 13.9577 16.9246C14.1936 15.1888 14.0212 14.052 13.9395 13.6322C13.1228 9.42468 5.79063 8.16997 5.24163 5.81622C5.16539 5.46912 5.15921 5.10935 5.22348 4.75963C5.35959 4.11341 5.78156 3.41059 6.98846 3.41059C8.12277 3.41059 8.78067 4.137 8.78067 5.23132V6.47659H13.6038V5.06151C13.6038 0.6842 9.82424 0.000244141 7.09282 0.000244141C3.65359 0.000244141 0.845039 1.18419 0.332331 4.46246C0.196214 5.35868 0.173527 6.16056 0.377703 7.16998C1.21709 11.2737 8.08194 12.4624 9.08013 15.0614Z" fill="#034EA2"/>
<path d="M20.7954 0.64168L17.2109 20.7311H22.4333L25.0785 2.50015H25.1874L27.76 20.7311H32.9552L29.3934 0.636963L20.7954 0.64168ZM49.9925 0.64168L47.6105 16H47.497L45.1195 0.64168H37.2383L36.8118 20.7311H41.6485L41.7665 2.66996H41.8754L45.1014 20.7311H50.0061L53.2367 2.67467H53.341L53.4635 20.7311H58.2957L57.8692 0.636963L49.9925 0.64168Z" fill="#034EA2"/>
<path d="M72.334 15.5477C72.5201 16.0336 72.4611 16.6562 72.3703 17.0336C72.2115 17.7034 71.776 18.3873 70.4874 18.3873C69.2805 18.3873 68.5454 17.6609 68.5454 16.5666V14.6185H63.3594V16.1657C63.3594 20.6467 66.7487 22.0005 70.383 22.0005C73.8767 22.0005 76.7533 20.7647 77.2116 17.4109C77.4475 15.6751 77.2751 14.5383 77.1934 14.1185C76.3767 9.91101 69.0445 8.6563 68.4955 6.30255C68.4193 5.95544 68.4131 5.59567 68.4774 5.24596C68.6135 4.59974 69.0355 3.89691 70.2424 3.89691C71.3767 3.89691 72.0346 4.62332 72.0346 5.71765V6.96292H76.8577V5.54784C76.8577 1.17053 73.0781 0.486572 70.3467 0.486572C66.9075 0.486572 64.0989 1.67052 63.5862 4.94879C63.4501 5.84501 63.4274 6.64689 63.6316 7.65631C64.471 11.76 71.3358 12.9487 72.334 15.5477Z" fill="#034EA2"/>
<path d="M88.1286 17.7212C89.4716 17.7212 89.8845 16.759 89.9798 16.2684C90.0206 16.0514 90.0251 15.759 90.0251 15.4996V0.64116H94.9163V15.042C94.9172 15.4827 94.9021 15.9233 94.8709 16.3628C94.5306 20.1127 91.6812 21.3297 88.1286 21.3297C84.5714 21.3297 81.722 20.1127 81.3817 16.3628C81.3681 16.1646 81.3318 15.4099 81.3363 15.042V0.636444H86.2275V15.4948C86.2229 15.759 86.232 16.0514 86.2728 16.2684C86.3636 16.759 86.781 17.7212 88.1286 17.7212ZM111.759 0.64116L112.022 16.4099H111.917L107.471 0.64116H100.302V20.5184H105.052L104.789 4.20246H104.894L109.662 20.5184H116.545V0.64116H111.759ZM128.433 17.5137C129.83 17.5137 130.32 16.5939 130.407 16.0514C130.447 15.8297 130.452 15.5467 130.452 15.2967V12.3722H128.469V9.44771H135.316V14.8345C135.316 15.2118 135.307 15.4854 135.248 16.1552C134.93 19.8156 131.877 21.1222 128.451 21.1222C125.025 21.1222 121.976 19.8156 121.654 16.1552C121.6 15.4854 121.586 15.2118 121.586 14.8345V6.38169C121.586 6.0232 121.632 5.39113 121.668 5.06094C122.099 1.30153 125.025 0.0939941 128.451 0.0939941C131.877 0.0939941 134.88 1.2921 135.234 5.05623C135.298 5.69773 135.28 6.37697 135.28 6.37697V7.0515H130.407V5.92415C130.407 5.92415 130.407 5.45245 130.348 5.16C130.257 4.71661 129.894 3.69775 128.415 3.69775C127.008 3.69775 126.595 4.66472 126.491 5.16C126.432 5.42415 126.409 5.78264 126.409 6.10811V15.292C126.409 15.5467 126.418 15.8297 126.455 16.0562C126.545 16.5939 127.035 17.5137 128.433 17.5137Z" fill="#034EA2"/>
</svg>
