<svg width="29" height="25" viewBox="0 0 29 25" fill="none" xmlns="http://www.w3.org/2000/svg">
<path d="M11.8336 17.8947C11.4569 20.8553 9.35326 23.0263 6.90432 23.0263C4.45534 23.0263 2.35173 20.8553 1.97497 17.8947H11.8336ZM2.7285 15.9211L6.90432 9.27635L11.0802 15.9211H2.7285ZM13.5919 16.6118C13.5606 16.5461 13.4978 16.3815 13.4978 16.3487L7.62646 7.00654C7.46947 6.74346 7.1869 6.57895 6.90432 6.57895C6.62175 6.57895 6.33917 6.74346 6.18219 7.00654L0.310921 16.3487C0.279517 16.3815 0.216729 16.5461 0.216729 16.6118C0.185325 16.6776 0.153931 16.875 0.153931 16.9079C0.153931 21.3815 3.16806 25 6.90432 25C10.6406 25 13.6547 21.3815 13.6547 16.9079C13.6547 16.875 13.6234 16.6776 13.5919 16.6118ZM27.179 17.8947C26.8023 20.8553 24.6986 23.0263 22.2497 23.0263C19.8008 23.0263 17.6971 20.8224 17.3204 17.8947H27.179ZM18.0738 15.9211L22.2497 9.27635L26.4255 15.9211H18.0738ZM28.9373 16.6118C28.9059 16.5461 28.8431 16.3815 28.8431 16.3487L22.9718 7.00654C22.8148 6.74346 22.5323 6.57895 22.2497 6.57895C21.9671 6.57895 21.6845 6.74346 21.5276 7.00654L15.6562 16.3487C15.6249 16.4474 15.5934 16.5132 15.5621 16.6118C15.5307 16.6776 15.4993 16.875 15.4993 16.9079C15.4993 21.3815 18.5135 25 22.2497 25C25.986 25 29.0001 21.3815 29.0001 16.9079C29.0001 16.875 28.9686 16.6776 28.9373 16.6118ZM24.1532 2.07237H17.4028C16.9946 0.822365 15.9271 0 14.734 0C13.5409 0 12.4734 0.822365 12.0338 2.07237H5.59741C5.09507 2.07237 4.7183 2.5 4.7183 3.05921C4.7183 3.58553 5.12646 4.04605 5.59741 4.04605H11.9396C12.285 5.46053 13.4153 6.44737 14.734 6.44737C16.0527 6.44737 17.183 5.46053 17.5284 4.04605H24.1532C24.6555 4.04605 25.0323 3.61842 25.0323 3.05921C25.0323 2.5 24.6241 2.07237 24.1532 2.07237Z" fill="white"/>
</svg>
