<svg width="24" height="24" viewBox="0 0 24 24" fill="none" xmlns="http://www.w3.org/2000/svg">
<path d="M14.5254 16.9502C14.5254 15.5763 15.6515 14.4502 17.0254 14.4502C18.3992 14.4502 19.5254 15.5763 19.5254 16.9502C19.5254 18.3241 18.3992 19.4502 17.0254 19.4502C15.6515 19.4502 14.5254 18.3241 14.5254 16.9502Z" stroke="#029AAD"/>
<path d="M11.7754 2.47539V21.0754C11.7754 22.1254 10.8754 23.0254 9.82539 23.0254H3.22539C2.17539 23.0254 1.27539 22.1254 1.27539 21.0754V2.47539C1.27539 1.42539 2.17539 0.525391 3.22539 0.525391H9.82539C10.8754 0.525391 11.7754 1.35039 11.7754 2.47539Z" stroke="#029AAD" stroke-miterlimit="10"/>
<path d="M13.3496 8.02539H20.6246C21.5246 8.02539 22.1996 8.77539 22.1996 9.60039V21.3754C22.1996 22.2754 21.4496 22.9504 20.6246 22.9504H13.3496" stroke="#029AAD" stroke-miterlimit="10" stroke-linecap="round" stroke-linejoin="round"/>
<path d="M1.72461 15.375H11.2496" stroke="#029AAD" stroke-miterlimit="10" stroke-linecap="round" stroke-linejoin="round"/>
<path d="M13.4248 12.4502H22.2748" stroke="#029AAD" stroke-miterlimit="10" stroke-linecap="round" stroke-linejoin="round"/>
<path d="M14.7002 10.0498H16.2002" stroke="#029AAD" stroke-miterlimit="10" stroke-linecap="round" stroke-linejoin="round"/>
<path d="M18 10.0498H19.5" stroke="#029AAD" stroke-miterlimit="10" stroke-linecap="round" stroke-linejoin="round"/>
<path d="M4.27539 13.0498V10.7998" stroke="#029AAD" stroke-miterlimit="10" stroke-linecap="round" stroke-linejoin="round"/>
<path d="M4.27539 19.7998V17.5498" stroke="#029AAD" stroke-miterlimit="10" stroke-linecap="round" stroke-linejoin="round"/>
<path d="M18.5254 17.7002C18.9396 17.7002 19.2754 17.3644 19.2754 16.9502C19.2754 16.536 18.9396 16.2002 18.5254 16.2002C18.1112 16.2002 17.7754 16.536 17.7754 16.9502C17.7754 17.3644 18.1112 17.7002 18.5254 17.7002Z" fill="#029AAD"/>
</svg>
