<svg width="94" height="20" viewBox="0 0 94 20" fill="none" xmlns="http://www.w3.org/2000/svg">
<path d="M93.2413 19.7831C93.3962 19.7831 93.5356 19.6592 93.5356 19.4888V17.4595C93.5356 17.3046 93.4117 17.1652 93.2413 17.1652H90.5459C89.9108 17.1652 88.2378 17.1342 87.3238 16.685C87.0295 16.5301 86.7971 16.3752 86.6422 16.1738C86.5028 15.9879 86.4408 15.7555 86.4408 15.4767V0.497083C86.4408 0.342175 86.3169 0.202759 86.1465 0.202759H80.2445C80.0896 0.202759 79.9502 0.326684 79.9502 0.497083V14.9965C79.9502 15.7555 80.1206 16.4681 80.4614 16.9638C80.8177 17.4905 81.3753 18.0327 82.1034 18.4354C84.3341 19.6437 88.2687 19.7831 89.8023 19.7831" fill="#E5001F"/>
<path d="M40.0926 19.705C40.2475 19.705 40.3869 19.5811 40.3869 19.4107V17.3814C40.3869 17.2265 40.263 17.0871 40.0926 17.0871H28.5674C27.9323 17.0871 26.2593 17.0561 25.3453 16.6069C25.051 16.4675 24.8186 16.2971 24.6637 16.0957C24.5243 15.9098 24.4624 15.6774 24.4624 15.3986V14.3297H30.3334C31.867 14.3297 35.91 14.2523 38.1407 13.1524C38.8688 12.7961 39.411 12.3934 39.7827 11.9132C40.5418 10.8908 40.6192 8.84599 39.7827 7.73065C39.4265 7.25043 38.8688 6.84767 38.1407 6.49139C35.91 5.39154 31.867 5.31409 30.3334 5.31409H27.8239C26.2903 5.31409 22.2472 5.43801 20.0165 6.52237C19.2884 6.87866 18.7463 7.35887 18.3745 7.85458C18.0337 8.30381 17.8633 8.93893 17.8633 9.63602V15.3986C17.8633 16.0957 18.0337 16.7308 18.3745 17.18C18.7308 17.6602 19.2884 18.1405 20.0165 18.4968C22.2472 19.5966 26.2903 19.7205 27.8239 19.705H40.0926ZM33.7104 10.0078C33.7104 10.2866 33.6329 10.519 33.509 10.7049C33.3541 10.9063 33.1372 11.0767 32.8274 11.2161C31.9134 11.6653 30.2404 11.6963 29.6053 11.6963H24.4469V9.43464C24.4469 9.1558 24.5243 8.92344 24.6482 8.73755C24.8032 8.53617 25.02 8.36577 25.3298 8.22636C26.2438 7.77712 27.9168 7.74614 28.5519 7.74614H29.5898C30.2249 7.74614 31.8979 7.77712 32.8119 8.22636C33.1062 8.38126 33.3386 8.53617 33.4935 8.73755C33.6329 8.92344 33.6949 9.1558 33.6949 9.43464V10.0078H33.7104Z" fill="#E5001F"/>
<path d="M76.0932 7.94768C75.737 7.46746 75.1793 6.98725 74.4512 6.63096C72.2205 5.53112 68.1774 5.40719 66.6439 5.42268H63.4992H56.5748C56.4199 5.42268 56.2805 5.54661 56.2805 5.71701V7.7463C56.2805 7.90121 56.4044 8.04062 56.5748 8.04062H65.9003C66.5354 8.04062 68.2084 8.07161 69.1224 8.52084C69.4167 8.66026 69.6491 8.83065 69.804 9.03203C69.9434 9.21792 70.0054 9.45028 70.0054 9.72912V10.705H64.1189C62.5853 10.705 58.5422 10.7825 56.3115 11.8823C55.5834 12.2386 55.0412 12.6414 54.6695 13.1216C53.8485 14.2214 53.8485 16.2972 54.6695 17.3971C55.0258 17.8773 55.5834 18.28 56.3115 18.6363C58.5422 19.7362 62.5853 19.8136 64.1189 19.8136H66.6439C68.1774 19.8136 72.2205 19.6897 74.4512 18.6053C75.1793 18.2491 75.7215 17.7688 76.0932 17.2886C76.4186 16.8394 76.589 16.2043 76.589 15.5072V9.74461C76.589 9.04753 76.4186 8.39691 76.0932 7.94768ZM70.0209 15.6776C70.0209 15.9564 69.9434 16.1888 69.8195 16.3747C69.6646 16.576 69.4477 16.7464 69.1379 16.8859C68.2239 17.3351 66.5509 17.3661 65.9158 17.3661H64.8779C64.2428 17.3661 62.5698 17.3351 61.6558 16.8859C61.3615 16.7464 61.1291 16.576 60.9742 16.3747C60.8348 16.1888 60.7728 15.9564 60.7728 15.6776V15.0115C60.7728 14.7326 60.8503 14.5003 60.9742 14.3144C61.1291 14.113 61.346 13.9426 61.6558 13.8032C62.5698 13.354 64.2428 13.323 64.8779 13.323H70.0209V15.6776Z" fill="#E5001F"/>
<path d="M14.2071 19.7061C14.362 19.7061 14.5014 19.5822 14.5014 19.4118V2.86758H21.6582C21.8131 2.86758 21.9525 2.74366 21.9525 2.57326V0.543958C21.9525 0.38905 21.8286 0.249634 21.6582 0.249634H0.869522C0.714614 0.249634 0.575195 0.373559 0.575195 0.543958V2.57326C0.575195 2.72816 0.699123 2.86758 0.869522 2.86758H8.01078V19.4118C8.01078 19.5667 8.1347 19.7061 8.3051 19.7061" fill="#E5001F"/>
<path d="M89.8949 1.14782V0.838002H90.1272C90.2357 0.838002 90.3441 0.838004 90.3441 0.977423C90.3441 1.13233 90.2512 1.14782 90.1117 1.14782H89.8949ZM89.8949 1.31823H90.0343L90.3286 1.76746H90.561L90.2512 1.30273C90.4525 1.28724 90.5455 1.14782 90.5455 0.992913C90.5455 0.791529 90.4216 0.667603 90.1892 0.667603H89.709V1.76746H89.9104V1.31823H89.8949Z" fill="#E5001F"/>
<path d="M90.0809 0.187134C89.5077 0.187134 89.043 0.651854 89.043 1.22501C89.043 1.79817 89.5077 2.26289 90.0809 2.26289C90.654 2.26289 91.1187 1.79817 91.1187 1.22501C91.1187 0.651854 90.654 0.187134 90.0809 0.187134ZM90.0809 2.04602C89.6161 2.04602 89.2444 1.67424 89.2444 1.20952C89.2444 0.7448 89.6161 0.373022 90.0809 0.373022C90.5456 0.373022 90.9174 0.7448 90.9174 1.20952C90.9174 1.67424 90.5456 2.04602 90.0809 2.04602Z" fill="#E5001F"/>
<path d="M43.1444 19.4106C43.1444 19.5655 43.2683 19.7049 43.4387 19.7049H49.3252C49.4801 19.7049 49.6196 19.581 49.6196 19.4106V8.04034H53.2289C53.3838 8.04034 53.5232 7.90093 53.5232 7.74602V5.71673C53.5232 5.56182 53.3993 5.4224 53.2289 5.4224H49.6196V4.52394C49.6196 4.2451 49.697 4.01274 49.8209 3.82685C49.9758 3.62547 50.1927 3.45507 50.5025 3.31565C51.4165 2.86642 53.1979 2.83544 53.833 2.83544H56.42C56.5749 2.83544 56.7143 2.71151 56.7143 2.54111V0.511823C56.7143 0.356915 56.5904 0.217497 56.42 0.217497H53.0895C51.5559 0.202006 47.5128 0.341425 45.2821 1.5652C44.5541 1.96796 44.0119 2.49464 43.6401 3.03682C43.3148 3.53253 43.1289 4.2451 43.1289 5.19004" fill="#E5001F"/>
</svg>
