<svg width="24" height="17" viewBox="0 0 24 17" fill="none" xmlns="http://www.w3.org/2000/svg">
<path d="M11.46 16H5V17H19V16H11.46ZM21.5 15H2.5C1.83696 15 1.20107 14.7366 0.732233 14.2678C0.263392 13.7989 0 13.163 0 12.5V2.5C0 1.83696 0.263392 1.20107 0.732233 0.73223C1.20107 0.26339 1.83696 0 2.5 0H21.5C21.8283 0 22.1534 0.06466 22.4567 0.1903C22.76 0.31594 23.0356 0.50009 23.2678 0.73223C23.4999 0.96438 23.6841 1.23998 23.8097 1.54329C23.9353 1.84661 24 2.1717 24 2.5V12.5C24 12.8283 23.9353 13.1534 23.8097 13.4567C23.6841 13.76 23.4999 14.0356 23.2678 14.2678C23.0356 14.4999 22.76 14.6841 22.4567 14.8097C22.1534 14.9353 21.8283 15 21.5 15ZM21.5 14C21.8978 14 22.2794 13.842 22.5607 13.5607C22.842 13.2794 23 12.8978 23 12.5V2.5C23 2.10218 22.842 1.72064 22.5607 1.43934C22.2794 1.15804 21.8978 1 21.5 1H2.5C2.10218 1 1.72064 1.15804 1.43934 1.43934C1.15804 1.72064 1 2.10218 1 2.5V12.5C1 12.8978 1.15804 13.2794 1.43934 13.5607C1.72064 13.842 2.10218 14 2.5 14H21.5ZM10 10.5V4.5C9.99998 4.41153 10.0234 4.32465 10.068 4.24821C10.1125 4.17177 10.1765 4.10851 10.2535 4.06489C10.3304 4.02128 10.4176 3.99886 10.5061 3.99993C10.5945 4.001 10.6811 4.02553 10.757 4.071L15.757 7.071C15.8312 7.1154 15.8925 7.1782 15.9352 7.2534C15.9778 7.3286 16.0002 7.4136 16.0002 7.5C16.0002 7.5864 15.9778 7.6714 15.9352 7.7466C15.8925 7.8218 15.8312 7.8846 15.757 7.929L10.757 10.929C10.6811 10.9745 10.5945 10.999 10.5061 11.0001C10.4176 11.0011 10.3304 10.9787 10.2535 10.9351C10.1765 10.8915 10.1125 10.8282 10.068 10.7518C10.0234 10.6754 9.99998 10.5885 10 10.5ZM14.528 7.5L11 5.383V9.617L14.528 7.5ZM5 2V3H3.5C3.36739 3 3.24021 3.05268 3.14645 3.14645C3.05268 3.24021 3 3.36739 3 3.5V5H2V3.5C2 3.10218 2.15804 2.72064 2.43934 2.43934C2.72064 2.15804 3.10218 2 3.5 2H5ZM19 13V12H20.5C20.6326 12 20.7598 11.9473 20.8536 11.8536C20.9473 11.7598 21 11.6326 21 11.5V10H22V11.5C22 11.8978 21.842 12.2794 21.5607 12.5607C21.2794 12.842 20.8978 13 20.5 13H19Z" fill="#029AAD"/>
</svg>
