<svg width="32" height="33" viewBox="0 0 32 33" fill="none" xmlns="http://www.w3.org/2000/svg">
<g clip-path="url(#clip0_412_1188)">
<path d="M32 16.6268C32 7.79027 24.8366 0.626831 16 0.626831C7.16344 0.626831 0 7.79027 0 16.6268C0 25.4634 7.16344 32.6268 16 32.6268C24.8366 32.6268 32 25.4634 32 16.6268Z" fill="#029AAD"/>
<path d="M24.6391 11.1195C23.9846 11.4066 23.2872 11.5969 22.5601 11.6893C23.3081 11.2427 23.879 10.5409 24.1474 9.69504C23.45 10.1108 22.68 10.4045 21.8594 10.5684C21.1972 9.86334 20.2534 9.42664 19.2238 9.42664C17.2262 9.42664 15.618 11.048 15.618 13.0357C15.618 13.3217 15.6422 13.5967 15.7016 13.8585C12.7019 13.7122 10.0476 12.2745 8.26446 10.0844C7.95316 10.6245 7.77056 11.2427 7.77056 11.9082C7.77056 13.1578 8.41406 14.2655 9.37326 14.9068C8.79356 14.8958 8.22486 14.7275 7.74306 14.4624C7.74306 14.4734 7.74306 14.4877 7.74306 14.502C7.74306 16.2554 8.99376 17.7118 10.6339 18.0473C10.3402 18.1276 10.0201 18.1661 9.68786 18.1661C9.45686 18.1661 9.22366 18.1529 9.00476 18.1045C9.47226 19.5334 10.7989 20.5839 12.3763 20.618C11.1487 21.5783 9.58996 22.1569 7.90256 22.1569C7.60666 22.1569 7.32286 22.1437 7.03906 22.1074C8.63736 23.1381 10.5316 23.7266 12.5743 23.7266C19.2139 23.7266 22.8439 18.2266 22.8439 13.4592C22.8439 13.2997 22.8384 13.1457 22.8307 12.9928C23.5468 12.4846 24.1485 11.8499 24.6391 11.1195Z" fill="white"/>
</g>
<defs>
<clipPath id="clip0_412_1188">
<rect width="32" height="32" fill="white" transform="translate(0 0.626831)"/>
</clipPath>
</defs>
</svg>
