<svg width="32" height="33" viewBox="0 0 32 33" fill="none" xmlns="http://www.w3.org/2000/svg">
<g clip-path="url(#clip0_412_1191)">
<path d="M32 16.6268C32 7.79027 24.8366 0.626831 16 0.626831C7.16344 0.626831 0 7.79027 0 16.6268C0 25.4634 7.16344 32.6268 16 32.6268C24.8366 32.6268 32 25.4634 32 16.6268Z" fill="#029AAD"/>
<path d="M21.9642 17.7144C21.6797 17.3551 21.7611 17.1952 21.9642 16.874C21.9679 16.8703 24.3168 13.6245 24.5588 12.5237L24.5603 12.523C24.6806 12.1218 24.5603 11.827 23.9788 11.827H22.0544C21.5645 11.827 21.3387 12.08 21.2177 12.3631C21.2177 12.3631 20.2379 14.7084 18.8518 16.2286C18.4045 16.6679 18.1977 16.8087 17.9535 16.8087C17.8332 16.8087 17.6462 16.6679 17.6462 16.2667V12.523C17.6462 12.0419 17.5091 11.827 17.1035 11.827H14.0777C13.7704 11.827 13.5878 12.0514 13.5878 12.2604C13.5878 12.7166 14.2808 12.8214 14.3527 14.1048V16.8894C14.3527 17.4995 14.2419 17.6117 13.9963 17.6117C13.3421 17.6117 11.7544 15.2569 10.8135 12.5618C10.6236 12.0389 10.438 11.8277 9.94446 11.8277H8.01939C7.4701 11.8277 7.35938 12.0807 7.35938 12.3638C7.35938 12.864 8.01353 15.3508 10.4013 18.6362C11.9927 20.8788 14.2339 22.094 16.2726 22.094C17.4981 22.094 17.6477 21.8241 17.6477 21.3599C17.6477 19.2171 17.5369 19.0146 18.1507 19.0146C18.4353 19.0146 18.9252 19.1554 20.0692 20.2372C21.3768 21.5198 21.5917 22.094 22.3236 22.094H24.2479C24.7964 22.094 25.0744 21.8241 24.9145 21.2917C24.5486 20.1719 22.0757 17.8684 21.9642 17.7144Z" fill="white"/>
</g>
<defs>
<clipPath id="clip0_412_1191">
<rect width="32" height="32" fill="white" transform="translate(0 0.626831)"/>
</clipPath>
</defs>
</svg>
