<svg width="32" height="33" viewBox="0 0 32 33" fill="none" xmlns="http://www.w3.org/2000/svg">
<g clip-path="url(#clip0_412_1194)">
<path d="M16 0.626831C7.16 0.626831 0 7.78683 0 16.6268C0 25.4668 7.16 32.6268 16 32.6268C24.84 32.6268 32 25.4668 32 16.6268C32 7.78683 24.84 0.626831 16 0.626831Z" fill="#029AAD"/>
<path d="M23.1 9.48683C21.22 7.59683 18.71 6.56683 16.05 6.56683C10.55 6.56683 6.08 11.0368 6.08 16.5368C6.08 18.2968 6.54 20.0068 7.41 21.5268L6 26.6968L11.29 25.3068C12.75 26.0968 14.39 26.5168 16.06 26.5168C21.56 26.5168 26.03 22.0468 26.03 16.5468C26.02 13.8768 24.98 11.3768 23.1 9.48683ZM16.04 24.8368C14.55 24.8368 13.09 24.4368 11.82 23.6768L11.52 23.4968L8.38 24.3168L9.22 21.2568L9.02 20.9468C8.19 19.6268 7.75 18.1068 7.75 16.5368C7.75 11.9668 11.47 8.24683 16.04 8.24683C18.25 8.24683 20.34 9.10683 21.9 10.6768C23.46 12.2468 24.33 14.3268 24.33 16.5368C24.33 21.1168 20.61 24.8368 16.04 24.8368ZM20.59 18.6268C20.34 18.5068 19.12 17.8968 18.89 17.8168C18.66 17.7368 18.5 17.6968 18.33 17.9368C18.16 18.1868 17.69 18.7468 17.54 18.9168C17.39 19.0868 17.25 19.1068 17 18.9768C16.75 18.8568 15.95 18.5868 15 17.7368C14.26 17.0768 13.76 16.2568 13.61 16.0068C13.46 15.7568 13.61 15.6368 13.72 15.4968C13.99 15.1668 14.26 14.8068 14.34 14.6468C14.42 14.4768 14.38 14.3368 14.32 14.2068C14.26 14.0868 13.76 12.8568 13.55 12.3568C13.35 11.8668 13.14 11.9368 12.99 11.9268C12.84 11.9168 12.68 11.9168 12.51 11.9168C12.34 11.9168 12.07 11.9768 11.85 12.2268C11.62 12.4768 10.98 13.0768 10.98 14.3068C10.98 15.5368 11.87 16.7168 12 16.8868C12.12 17.0568 13.76 19.5668 16.26 20.6468C16.85 20.9068 17.32 21.0568 17.68 21.1768C18.28 21.3668 18.82 21.3368 19.25 21.2768C19.73 21.2068 20.72 20.6768 20.93 20.0968C21.14 19.5168 21.14 19.0168 21.08 18.9068C21 18.8068 20.84 18.7468 20.59 18.6268Z" fill="white"/>
</g>
<defs>
<clipPath id="clip0_412_1194">
<rect width="32" height="32" fill="white" transform="translate(0 0.626831)"/>
</clipPath>
</defs>
</svg>
